<?xml version="1.0" encoding="UTF-8" standalone="no"?>
<!DOCTYPE svg PUBLIC "-//W3C//DTD SVG 1.1//EN"
 "http://www.w3.org/Graphics/SVG/1.1/DTD/svg11.dtd">
<!-- Generated by graphviz version 2.40.1 (20161225.0304)
 -->
<!-- Title: algebraic_structures Pages: 1 -->
<svg width="1008pt" height="638pt"
 viewBox="0.00 0.00 1008.00 638.10" xmlns="http://www.w3.org/2000/svg" xmlns:xlink="http://www.w3.org/1999/xlink">
<g id="graph0" class="graph" transform="scale(.4798 .4798) rotate(0) translate(4 1326)">
<title>algebraic_structures</title>
<polygon fill="#ffffff" stroke="transparent" points="-4,4 -4,-1326 2097,-1326 2097,4 -4,4"/>
<!-- Magma -->
<g id="node1" class="node">
<title>Magma</title>
<polygon fill="none" stroke="#000000" points="290,-267 55,-267 55,-95 290,-95 290,-267"/>
<text text-anchor="start" x="131.5" y="-184.8" font-family="Times,serif" font-weight="bold" font-size="14.00" fill="#000000">Magma (a, +)</text>
<text text-anchor="start" x="127" y="-170.8" font-family="Times,serif" font-size="14.00" fill="#000000">(+) :: a &#45;&gt; a &#45;&gt; a</text>
</g>
<!-- Semigroup -->
<g id="node2" class="node">
<title>Semigroup</title>
<polygon fill="none" stroke="#000000" points="704,-267 383,-267 383,-95 704,-95 704,-267"/>
<text text-anchor="start" x="493.5" y="-184.8" font-family="Times,serif" font-weight="bold" font-size="14.00" fill="#000000">Semigroup (a, +)</text>
<text text-anchor="start" x="455" y="-170.8" font-family="Times,serif" font-size="14.00" fill="#000000">∀a b c. (a + b) + c = a + (b + c)</text>
</g>
<!-- Magma&#45;&gt;Semigroup -->
<g id="edge1" class="edge">
<title>Magma&#45;&gt;Semigroup</title>
<path fill="none" stroke="#000000" d="M290.1415,-181C316.4152,-181 344.7955,-181 372.7276,-181"/>
<polygon fill="#000000" stroke="#000000" points="372.9934,-184.5001 382.9934,-181 372.9933,-177.5001 372.9934,-184.5001"/>
</g>
<!-- Monoid -->
<g id="node3" class="node">
<title>Monoid</title>
<polygon fill="none" stroke="#000000" points="1039,-274 778,-274 778,-88 1039,-88 1039,-274"/>
<text text-anchor="start" x="860.5" y="-191.8" font-family="Times,serif" font-weight="bold" font-size="14.00" fill="#000000">Monoid (a, +, 0)</text>
<text text-anchor="start" x="894.5" y="-177.8" font-family="Times,serif" font-size="14.00" fill="#000000">0 :: a</text>
<text text-anchor="start" x="850" y="-163.8" font-family="Times,serif" font-size="14.00" fill="#000000">∀a. a + 0 = 0 + a = a</text>
</g>
<!-- Semigroup&#45;&gt;Monoid -->
<g id="edge2" class="edge">
<title>Semigroup&#45;&gt;Monoid</title>
<path fill="none" stroke="#000000" d="M704.1255,-181C725.3284,-181 746.931,-181 767.7662,-181"/>
<polygon fill="#000000" stroke="#000000" points="767.9276,-184.5001 777.9276,-181 767.9275,-177.5001 767.9276,-184.5001"/>
</g>
<!-- Group -->
<g id="node4" class="node">
<title>Group</title>
<polygon fill="none" stroke="#000000" points="1413,-362 1133,-362 1133,-190 1413,-190 1413,-362"/>
<text text-anchor="start" x="1228.5" y="-279.8" font-family="Times,serif" font-weight="bold" font-size="14.00" fill="#000000">Group (a, +, 0)</text>
<text text-anchor="start" x="1205" y="-265.8" font-family="Times,serif" font-size="14.00" fill="#000000">∀a ∃b. a + b = b + a = 0</text>
</g>
<!-- Monoid&#45;&gt;Group -->
<g id="edge3" class="edge">
<title>Monoid&#45;&gt;Group</title>
<path fill="none" stroke="#000000" d="M1039.0633,-215.0288C1066.2903,-222.125 1095.1951,-229.6585 1123.059,-236.9207"/>
<polygon fill="#000000" stroke="#000000" points="1122.3074,-240.3417 1132.8669,-239.477 1124.0729,-233.568 1122.3074,-240.3417"/>
</g>
<!-- CommutativeMonoid -->
<g id="node5" class="node">
<title>CommutativeMonoid</title>
<polygon fill="none" stroke="#000000" points="1435,-172 1111,-172 1111,0 1435,0 1435,-172"/>
<text text-anchor="start" x="1183" y="-89.8" font-family="Times,serif" font-weight="bold" font-size="14.00" fill="#000000">Commutative Monoid (a, +, 0)</text>
<text text-anchor="start" x="1220" y="-75.8" font-family="Times,serif" font-size="14.00" fill="#000000">∀a b. a + b = b + a</text>
</g>
<!-- Monoid&#45;&gt;CommutativeMonoid -->
<g id="edge4" class="edge">
<title>Monoid&#45;&gt;CommutativeMonoid</title>
<path fill="none" stroke="#000000" d="M1039.0633,-146.9712C1059.167,-141.7315 1080.1853,-136.2535 1101.024,-130.8223"/>
<polygon fill="#000000" stroke="#000000" points="1102.1129,-134.1555 1110.9069,-128.2465 1100.3474,-127.3818 1102.1129,-134.1555"/>
</g>
<!-- Abelian -->
<g id="node6" class="node">
<title>Abelian</title>
<polygon fill="none" stroke="#000000" points="1757.5,-260.5 1518.5,-260.5 1518.5,-101.5 1757.5,-101.5 1757.5,-260.5"/>
<text text-anchor="start" x="1590.5" y="-178.3" font-family="Times,serif" font-weight="bold" font-size="14.00" fill="#000000">Abelian (a, +, 0)</text>
</g>
<!-- Group&#45;&gt;Abelian -->
<g id="edge5" class="edge">
<title>Group&#45;&gt;Abelian</title>
<path fill="none" stroke="#000000" d="M1413.0747,-239.5422C1444.3672,-231.3976 1477.4215,-222.7944 1508.2742,-214.7642"/>
<polygon fill="#000000" stroke="#000000" points="1509.413,-218.0845 1518.2089,-212.1785 1507.6497,-211.3102 1509.413,-218.0845"/>
</g>
<!-- CommutativeMonoid&#45;&gt;Abelian -->
<g id="edge6" class="edge">
<title>CommutativeMonoid&#45;&gt;Abelian</title>
<path fill="none" stroke="#000000" d="M1435.2199,-128.2216C1459.8189,-134.6241 1484.9155,-141.1561 1508.6922,-147.3445"/>
<polygon fill="#000000" stroke="#000000" points="1507.8808,-150.7499 1518.4399,-149.8816 1509.644,-143.9756 1507.8808,-150.7499"/>
</g>
<!-- RingLike -->
<g id="node7" class="node">
<title>RingLike</title>
<polygon fill="none" stroke="#000000" points="299,-685 46,-685 46,-471 299,-471 299,-685"/>
<text text-anchor="start" x="118" y="-602.8" font-family="Times,serif" font-weight="bold" font-size="14.00" fill="#000000">Ring&#45;Like (a, +, *)</text>
<text text-anchor="start" x="127" y="-588.8" font-family="Times,serif" font-size="14.00" fill="#000000">(+) :: a &#45;&gt; a &#45;&gt; a</text>
<text text-anchor="start" x="127.5" y="-574.8" font-family="Times,serif" font-size="14.00" fill="#000000">(*) :: a &#45;&gt; a &#45;&gt; a</text>
<text text-anchor="start" x="126" y="-560.8" font-family="Times,serif" font-size="14.00" fill="#000000">Monoid (a, +, 0)</text>
<text text-anchor="start" x="125.5" y="-546.8" font-family="Times,serif" font-size="14.00" fill="#000000">Semigroup (a, *)</text>
</g>
<!-- LeftSeminearring -->
<g id="node8" class="node">
<title>LeftSeminearring</title>
<polygon fill="none" stroke="#000000" points="701.5,-766 385.5,-766 385.5,-580 701.5,-580 701.5,-766"/>
<text text-anchor="start" x="457.5" y="-683.8" font-family="Times,serif" font-weight="bold" font-size="14.00" fill="#000000">Left&#45;Seminearring (a, +, *, 0)</text>
<text text-anchor="start" x="472" y="-669.8" font-family="Times,serif" font-size="14.00" fill="#000000">a * (b + c) = a * b + a * c</text>
<text text-anchor="start" x="518.5" y="-655.8" font-family="Times,serif" font-size="14.00" fill="#000000">a * 0 = 0</text>
</g>
<!-- RingLike&#45;&gt;LeftSeminearring -->
<g id="edge7" class="edge">
<title>RingLike&#45;&gt;LeftSeminearring</title>
<path fill="none" stroke="#000000" d="M299.1395,-610.4279C323.7093,-616.7194 349.8159,-623.4044 375.4728,-629.9742"/>
<polygon fill="#000000" stroke="#000000" points="374.7242,-633.3953 385.2799,-632.4854 376.4607,-626.6141 374.7242,-633.3953"/>
</g>
<!-- RightSeminearring -->
<g id="node9" class="node">
<title>RightSeminearring</title>
<polygon fill="none" stroke="#000000" points="706,-562 381,-562 381,-376 706,-376 706,-562"/>
<text text-anchor="start" x="453" y="-479.8" font-family="Times,serif" font-weight="bold" font-size="14.00" fill="#000000">Right&#45;Seminearring (a, +, *, 0)</text>
<text text-anchor="start" x="472" y="-465.8" font-family="Times,serif" font-size="14.00" fill="#000000">(a + b) * c = a * c + b * c</text>
<text text-anchor="start" x="518.5" y="-451.8" font-family="Times,serif" font-size="14.00" fill="#000000">0 * a = 0</text>
</g>
<!-- RingLike&#45;&gt;RightSeminearring -->
<g id="edge8" class="edge">
<title>RingLike&#45;&gt;RightSeminearring</title>
<path fill="none" stroke="#000000" d="M299.1395,-540.7932C322.3038,-533.9876 346.8343,-526.7805 371.0659,-519.6612"/>
<polygon fill="#000000" stroke="#000000" points="372.0881,-523.0089 380.696,-516.8319 370.1149,-516.2928 372.0881,-523.0089"/>
</g>
<!-- LeftNearring -->
<g id="node10" class="node">
<title>LeftNearring</title>
<polygon fill="none" stroke="#000000" points="1053,-858 764,-858 764,-686 1053,-686 1053,-858"/>
<text text-anchor="start" x="836" y="-775.8" font-family="Times,serif" font-weight="bold" font-size="14.00" fill="#000000">Left&#45;Nearring (a, +, *, 0)</text>
<text text-anchor="start" x="866.5" y="-761.8" font-family="Times,serif" font-size="14.00" fill="#000000">Group (a, +, 0)</text>
</g>
<!-- LeftSeminearring&#45;&gt;LeftNearring -->
<g id="edge9" class="edge">
<title>LeftSeminearring&#45;&gt;LeftNearring</title>
<path fill="none" stroke="#000000" d="M701.7366,-715.919C718.9574,-720.5898 736.4716,-725.3402 753.6511,-729.9999"/>
<polygon fill="#000000" stroke="#000000" points="753.1552,-733.4918 763.7227,-732.7316 754.9876,-726.7359 753.1552,-733.4918"/>
</g>
<!-- Semiring -->
<g id="node12" class="node">
<title>Semiring</title>
<polygon fill="none" stroke="#000000" points="1066.5,-668 750.5,-668 750.5,-482 1066.5,-482 1066.5,-668"/>
<text text-anchor="start" x="842.5" y="-585.8" font-family="Times,serif" font-weight="bold" font-size="14.00" fill="#000000">Semiring (a, +, *, 0, 1)</text>
<text text-anchor="start" x="822.5" y="-571.8" font-family="Times,serif" font-size="14.00" fill="#000000">Commutative Monoid (a, +, 0)</text>
<text text-anchor="start" x="863" y="-557.8" font-family="Times,serif" font-size="14.00" fill="#000000">Monoid (a, *, 1)</text>
</g>
<!-- LeftSeminearring&#45;&gt;Semiring -->
<g id="edge11" class="edge">
<title>LeftSeminearring&#45;&gt;Semiring</title>
<path fill="none" stroke="#000000" d="M701.7366,-630.5145C714.5473,-627.075 727.5203,-623.5918 740.3972,-620.1345"/>
<polygon fill="#000000" stroke="#000000" points="741.4708,-623.4702 750.2211,-617.4968 739.6556,-616.7097 741.4708,-623.4702"/>
</g>
<!-- RightNearring -->
<g id="node11" class="node">
<title>RightNearring</title>
<polygon fill="none" stroke="#000000" points="1057.5,-464 759.5,-464 759.5,-292 1057.5,-292 1057.5,-464"/>
<text text-anchor="start" x="831.5" y="-381.8" font-family="Times,serif" font-weight="bold" font-size="14.00" fill="#000000">Right&#45;Nearring (a, +, *, 0)</text>
<text text-anchor="start" x="866.5" y="-367.8" font-family="Times,serif" font-size="14.00" fill="#000000">Group (a, +, 0)</text>
</g>
<!-- RightSeminearring&#45;&gt;RightNearring -->
<g id="edge10" class="edge">
<title>RightSeminearring&#45;&gt;RightNearring</title>
<path fill="none" stroke="#000000" d="M706.2517,-428.4235C720.6165,-424.8422 735.1463,-421.2197 749.4797,-417.6462"/>
<polygon fill="#000000" stroke="#000000" points="750.5107,-420.9963 759.367,-415.1811 748.8173,-414.2042 750.5107,-420.9963"/>
</g>
<!-- RightSeminearring&#45;&gt;Semiring -->
<g id="edge12" class="edge">
<title>RightSeminearring&#45;&gt;Semiring</title>
<path fill="none" stroke="#000000" d="M706.2517,-516.2649C717.6877,-519.586 729.2283,-522.9375 740.6911,-526.2665"/>
<polygon fill="#000000" stroke="#000000" points="739.7182,-529.6284 750.2975,-529.0563 741.6704,-522.9062 739.7182,-529.6284"/>
</g>
<!-- Ring -->
<g id="node13" class="node">
<title>Ring</title>
<polygon fill="none" stroke="#000000" points="1398,-654.5 1148,-654.5 1148,-495.5 1398,-495.5 1398,-654.5"/>
<text text-anchor="start" x="1220" y="-572.3" font-family="Times,serif" font-weight="bold" font-size="14.00" fill="#000000">Ring (a, +, *, 0, 1)</text>
</g>
<!-- LeftNearring&#45;&gt;Ring -->
<g id="edge13" class="edge">
<title>LeftNearring&#45;&gt;Ring</title>
<path fill="none" stroke="#000000" d="M1053.0836,-693.8574C1081.3315,-678.5904 1110.8417,-662.6411 1138.7371,-647.5646"/>
<polygon fill="#000000" stroke="#000000" points="1140.6004,-650.5361 1147.7336,-642.7023 1137.2721,-644.3779 1140.6004,-650.5361"/>
</g>
<!-- RightNearring&#45;&gt;Ring -->
<g id="edge14" class="edge">
<title>RightNearring&#45;&gt;Ring</title>
<path fill="none" stroke="#000000" d="M1057.5448,-458.5537C1084.4989,-473.1215 1112.4559,-488.2313 1138.9489,-502.5499"/>
<polygon fill="#000000" stroke="#000000" points="1137.4123,-505.6979 1147.8738,-507.3735 1140.7406,-499.5397 1137.4123,-505.6979"/>
</g>
<!-- Semiring&#45;&gt;Ring -->
<g id="edge15" class="edge">
<title>Semiring&#45;&gt;Ring</title>
<path fill="none" stroke="#000000" d="M1066.5199,-575C1090.2184,-575 1114.4733,-575 1137.6433,-575"/>
<polygon fill="#000000" stroke="#000000" points="1137.8529,-578.5001 1147.8529,-575 1137.8529,-571.5001 1137.8529,-578.5001"/>
</g>
<!-- CommutativeRing -->
<g id="node14" class="node">
<title>CommutativeRing</title>
<polygon fill="none" stroke="#000000" points="1805,-756 1471,-756 1471,-584 1805,-584 1805,-756"/>
<text text-anchor="start" x="1543" y="-673.8" font-family="Times,serif" font-weight="bold" font-size="14.00" fill="#000000">Commutative Ring (a, +, *, 0, 1)</text>
<text text-anchor="start" x="1553" y="-659.8" font-family="Times,serif" font-size="14.00" fill="#000000">Commutative Monoid (a, *, 1)</text>
</g>
<!-- Ring&#45;&gt;CommutativeRing -->
<g id="edge16" class="edge">
<title>Ring&#45;&gt;CommutativeRing</title>
<path fill="none" stroke="#000000" d="M1398.1016,-607.5607C1418.4135,-612.8474 1439.7815,-618.4089 1461.0489,-623.9442"/>
<polygon fill="#000000" stroke="#000000" points="1460.25,-627.3529 1470.8092,-626.4846 1462.0133,-620.5785 1460.25,-627.3529"/>
</g>
<!-- DivisionRing -->
<g id="node15" class="node">
<title>DivisionRing</title>
<polygon fill="none" stroke="#000000" points="1788.5,-566 1487.5,-566 1487.5,-394 1788.5,-394 1788.5,-566"/>
<text text-anchor="start" x="1559.5" y="-483.8" font-family="Times,serif" font-weight="bold" font-size="14.00" fill="#000000">Division Ring (a, +, *, 0, 1)</text>
<text text-anchor="start" x="1580.5" y="-469.8" font-family="Times,serif" font-size="14.00" fill="#000000">Group (a &#45; {0}, *, 1)</text>
</g>
<!-- Ring&#45;&gt;DivisionRing -->
<g id="edge17" class="edge">
<title>Ring&#45;&gt;DivisionRing</title>
<path fill="none" stroke="#000000" d="M1398.1016,-542.4393C1423.6493,-535.7899 1450.8677,-528.7057 1477.4553,-521.7856"/>
<polygon fill="#000000" stroke="#000000" points="1478.422,-525.1507 1487.218,-519.2446 1476.6588,-518.3764 1478.422,-525.1507"/>
</g>
<!-- Field -->
<g id="node16" class="node">
<title>Field</title>
<polygon fill="none" stroke="#000000" points="2093,-654.5 1841,-654.5 1841,-495.5 2093,-495.5 2093,-654.5"/>
<text text-anchor="start" x="1913" y="-572.3" font-family="Times,serif" font-weight="bold" font-size="14.00" fill="#000000">Field (a, +, *, 0, 1)</text>
</g>
<!-- CommutativeRing&#45;&gt;Field -->
<g id="edge18" class="edge">
<title>CommutativeRing&#45;&gt;Field</title>
<path fill="none" stroke="#000000" d="M1805.3915,-621.6651C1813.9486,-619.1942 1822.4952,-616.7263 1830.9388,-614.2882"/>
<polygon fill="#000000" stroke="#000000" points="1832.1614,-617.5782 1840.7979,-611.4413 1830.2194,-610.853 1832.1614,-617.5782"/>
</g>
<!-- DivisionRing&#45;&gt;Field -->
<g id="edge19" class="edge">
<title>DivisionRing&#45;&gt;Field</title>
<path fill="none" stroke="#000000" d="M1788.5389,-523.4687C1802.6987,-527.5574 1816.9975,-531.6862 1831.0115,-535.7328"/>
<polygon fill="#000000" stroke="#000000" points="1830.0844,-539.108 1840.6629,-538.5197 1832.0264,-532.3828 1830.0844,-539.108"/>
</g>
<!-- Eq -->
<g id="node17" class="node">
<title>Eq</title>
<polygon fill="none" stroke="#000000" points="345,-1206 0,-1206 0,-992 345,-992 345,-1206"/>
<text text-anchor="start" x="115" y="-1123.8" font-family="Times,serif" font-weight="bold" font-size="14.00" fill="#000000">Equivalence (a, ==)</text>
<text text-anchor="start" x="112.5" y="-1109.8" font-family="Times,serif" font-size="14.00" fill="#000000">(==) :: a &#45;&gt; a &#45;&gt; Bool</text>
<text text-anchor="start" x="143.5" y="-1095.8" font-family="Times,serif" font-size="14.00" fill="#000000">∀a. a == a</text>
<text text-anchor="start" x="111.5" y="-1081.8" font-family="Times,serif" font-size="14.00" fill="#000000">∀a b. a == b = b == a</text>
<text text-anchor="start" x="72" y="-1067.8" font-family="Times,serif" font-size="14.00" fill="#000000">∀a b c. a == b and b == c → a == c</text>
</g>
<!-- POrd -->
<g id="node18" class="node">
<title>POrd</title>
<polygon fill="none" stroke="#000000" points="703.5,-1206 383.5,-1206 383.5,-992 703.5,-992 703.5,-1206"/>
<text text-anchor="start" x="485.5" y="-1123.8" font-family="Times,serif" font-weight="bold" font-size="14.00" fill="#000000">Partial Order (a, ≥)</text>
<text text-anchor="start" x="487.5" y="-1109.8" font-family="Times,serif" font-size="14.00" fill="#000000">(≥) :: a &#45;&gt; a &#45;&gt; Bool</text>
<text text-anchor="start" x="475" y="-1095.8" font-family="Times,serif" font-size="14.00" fill="#000000">a == b = a ≥ b and b ≥ a</text>
<text text-anchor="start" x="518.5" y="-1081.8" font-family="Times,serif" font-size="14.00" fill="#000000">∀a. a ≥ a</text>
<text text-anchor="start" x="455.5" y="-1067.8" font-family="Times,serif" font-size="14.00" fill="#000000">∀a b c. a ≥ b and b ≥ c → a ≥ c</text>
</g>
<!-- Eq&#45;&gt;POrd -->
<g id="edge20" class="edge">
<title>Eq&#45;&gt;POrd</title>
<path fill="none" stroke="#000000" d="M345.2377,-1099C354.5405,-1099 363.8862,-1099 373.1808,-1099"/>
<polygon fill="#000000" stroke="#000000" points="373.2418,-1102.5001 383.2418,-1099 373.2418,-1095.5001 373.2418,-1102.5001"/>
</g>
<!-- MeetSemilattice -->
<g id="node19" class="node">
<title>MeetSemilattice</title>
<polygon fill="none" stroke="#000000" points="1075,-1322 742,-1322 742,-1108 1075,-1108 1075,-1322"/>
<text text-anchor="start" x="828" y="-1239.8" font-family="Times,serif" font-weight="bold" font-size="14.00" fill="#000000">Meet Semilattice (a, ∧, ==)</text>
<text text-anchor="start" x="814" y="-1225.8" font-family="Times,serif" font-size="14.00" fill="#000000">∀a b c. a ∧ (b ∧ c) = (a ∧ b) ∧ c</text>
<text text-anchor="start" x="852.5" y="-1211.8" font-family="Times,serif" font-size="14.00" fill="#000000">∀a b. a ∧ b = b ∧ a</text>
<text text-anchor="start" x="871" y="-1197.8" font-family="Times,serif" font-size="14.00" fill="#000000">∀a. a ∧ a = a</text>
<text text-anchor="start" x="855" y="-1183.8" font-family="Times,serif" font-size="14.00" fill="#000000">a ≥ b = a ∧ b == b</text>
</g>
<!-- POrd&#45;&gt;MeetSemilattice -->
<g id="edge21" class="edge">
<title>POrd&#45;&gt;MeetSemilattice</title>
<path fill="none" stroke="#000000" d="M703.5943,-1149.8793C713.1476,-1152.9154 722.7841,-1155.978 732.3968,-1159.033"/>
<polygon fill="#000000" stroke="#000000" points="731.4074,-1162.3909 741.9977,-1162.0842 733.5276,-1155.7197 731.4074,-1162.3909"/>
</g>
<!-- JoinSemilattice -->
<g id="node20" class="node">
<title>JoinSemilattice</title>
<polygon fill="none" stroke="#000000" points="1075,-1090 742,-1090 742,-876 1075,-876 1075,-1090"/>
<text text-anchor="start" x="830.5" y="-1007.8" font-family="Times,serif" font-weight="bold" font-size="14.00" fill="#000000">Join Semilattice (a, ∨, ==)</text>
<text text-anchor="start" x="814" y="-993.8" font-family="Times,serif" font-size="14.00" fill="#000000">∀a b c. a ∨ (b ∨ c) = (a ∨ b) ∨ c</text>
<text text-anchor="start" x="852.5" y="-979.8" font-family="Times,serif" font-size="14.00" fill="#000000">∀a b. a ∨ b = b ∨ a</text>
<text text-anchor="start" x="871" y="-965.8" font-family="Times,serif" font-size="14.00" fill="#000000">∀a. a ∨ a = a</text>
<text text-anchor="start" x="855.5" y="-951.8" font-family="Times,serif" font-size="14.00" fill="#000000">a ≥ b = a ∨ b == a</text>
</g>
<!-- POrd&#45;&gt;JoinSemilattice -->
<g id="edge22" class="edge">
<title>POrd&#45;&gt;JoinSemilattice</title>
<path fill="none" stroke="#000000" d="M703.5943,-1048.1207C713.1476,-1045.0846 722.7841,-1042.022 732.3968,-1038.967"/>
<polygon fill="#000000" stroke="#000000" points="733.5276,-1042.2803 741.9977,-1035.9158 731.4074,-1035.6091 733.5276,-1042.2803"/>
</g>
<!-- Lattice -->
<g id="node21" class="node">
<title>Lattice</title>
<polygon fill="none" stroke="#000000" points="1406,-1178.5 1140,-1178.5 1140,-1019.5 1406,-1019.5 1406,-1178.5"/>
<text text-anchor="start" x="1212" y="-1096.3" font-family="Times,serif" font-weight="bold" font-size="14.00" fill="#000000">Lattice (a, ∧, ∨, ==)</text>
</g>
<!-- MeetSemilattice&#45;&gt;Lattice -->
<g id="edge23" class="edge">
<title>MeetSemilattice&#45;&gt;Lattice</title>
<path fill="none" stroke="#000000" d="M1075.0163,-1162.0071C1093.4635,-1156.1364 1112.1273,-1150.1968 1130.2441,-1144.4312"/>
<polygon fill="#000000" stroke="#000000" points="1131.487,-1147.7087 1139.9547,-1141.3409 1129.3642,-1141.0384 1131.487,-1147.7087"/>
</g>
<!-- JoinSemilattice&#45;&gt;Lattice -->
<g id="edge24" class="edge">
<title>JoinSemilattice&#45;&gt;Lattice</title>
<path fill="none" stroke="#000000" d="M1075.0163,-1035.9929C1093.4635,-1041.8636 1112.1273,-1047.8032 1130.2441,-1053.5688"/>
<polygon fill="#000000" stroke="#000000" points="1129.3642,-1056.9616 1139.9547,-1056.6591 1131.487,-1050.2913 1129.3642,-1056.9616"/>
</g>
<!-- Ord -->
<g id="node22" class="node">
<title>Ord</title>
<polygon fill="none" stroke="#000000" points="1793,-1199 1483,-1199 1483,-999 1793,-999 1793,-1199"/>
<text text-anchor="start" x="1584.5" y="-1116.8" font-family="Times,serif" font-weight="bold" font-size="14.00" fill="#000000">Total Order (a, ≥)</text>
<text text-anchor="start" x="1583.5" y="-1102.8" font-family="Times,serif" font-size="14.00" fill="#000000">∀a b. a ≥ b or b ≥ a</text>
<text text-anchor="start" x="1555" y="-1088.8" font-family="Times,serif" font-size="14.00" fill="#000000">a ∧ b | a ≥ b → b | b ≥ a → a</text>
<text text-anchor="start" x="1555" y="-1074.8" font-family="Times,serif" font-size="14.00" fill="#000000">a ∨ b | a ≥ b → a | b ≥ a → b</text>
</g>
<!-- Lattice&#45;&gt;Ord -->
<g id="edge25" class="edge">
<title>Lattice&#45;&gt;Ord</title>
<path fill="none" stroke="#000000" d="M1406.0643,-1099C1427.7077,-1099 1450.3544,-1099 1472.6563,-1099"/>
<polygon fill="#000000" stroke="#000000" points="1472.8741,-1102.5001 1482.8741,-1099 1472.874,-1095.5001 1472.8741,-1102.5001"/>
</g>
</g>
</svg>
